<?xml version="1.0" encoding="UTF-8" standalone="no"?>
<svg width="20px" height="20px" viewBox="0 0 20 20" version="1.1" xmlns="http://www.w3.org/2000/svg" xmlns:xlink="http://www.w3.org/1999/xlink">
    <!-- Generator: Sketch 50.2 (55047) - http://www.bohemiancoding.com/sketch -->
    <title>gift</title>
    <desc>Created with Sketch.</desc>
    <defs></defs>
    <g id="Page-1" stroke="none" stroke-width="1" fill="none" fill-rule="evenodd">
        <g id="gift" fill="#008296" fill-rule="nonzero">
            <path d="M20,5 L14.22,5 C14.7177891,4.45236299 14.9955894,3.74005463 15,3 C15,1.34314575 13.6568542,0 12,0 C11.2599454,0.00441061188 10.547637,0.282210872 10,0.78 C9.45236299,0.282210872 8.74005463,0.00441061188 8,0 C6.34314575,0 5,1.34314575 5,3 C5.00441061,3.74005463 5.28221087,4.45236299 5.78,5 L0,5 L0,11 L2,11 L2,20 L18,20 L18,11 L20,11 L20,5 Z M11,7 L11,9 L9,9 L9,7 L11,7 Z M12,2 C12.5522847,2 13,2.44771525 13,3 C13,3.55228475 12.5522847,4 12,4 C11.4477153,4 11,3.55228475 11,3 C11,2.44771525 11.4477153,2 12,2 Z M8,2 C8.55228475,2 9,2.44771525 9,3 C9,3.55228475 8.55228475,4 8,4 C7.44771525,4 7,3.55228475 7,3 C7,2.44771525 7.44771525,2 8,2 Z M2,7 L7,7 L7,9 L2,9 L2,7 Z M4,18 L4,11 L7,11 L7,18 L4,18 Z M9,18 L9,11 L11,11 L11,18 L9,18 Z M16,18 L13,18 L13,11 L16,11 L16,18 Z M18,9 L13,9 L13,7 L18,7 L18,9 Z" id="Shape"></path>
        </g>
    </g>
</svg>